<?xml version="1.0" encoding="UTF-8"?>
<svg viewBox="0 0 477 979" xmlns="http://www.w3.org/2000/svg">
 <g transform="translate(-74.5 -62.362)" stroke="#000">
  <path d="m455 64.362z" fill="none"/>
  <path d="m440 67.362 5 15-6 13-6 6 4 8-2 5-21-9-14 2-7-4-8 1 2 16-5 22-21-9-13 12-9 23-10 5-1 9 6 8-1 17-15 11-9 17-12 10v21l-13 2-14-2-1 21-9 34 2 7-5 4-2 9-29 36 15 8-1 20-5 9-4 4-24-11-13 7s-11 12-19 22-7 4-7 4l2 11-8 12 3 19-7 6 1 12-7 10 3 20-7 46 6 12 2 1 11 16-2.5 10.5-4.5 0.5-2.5 7.5-17 0.5 6.5 33.5 2.5 3-0.5 12-6.5 6 1 10.5-19 17-7-3.5-3.5 2.5 2 7.5-1.5 6.5-7.5 1.5-2.5 6 3 21-4 5v9.5l-4 2-5 9-8 0.5 1.5-13-2-6-9.5 3.5-1.5 50 3 1.5 2.5-6.5-1.5 8 6.5-4.5 3.5 2.5-8 9-4 6 4 7.5 2-4.5 4 2 5-2-8 17.5 4 6 3.5 14-4.5 10 1.5 10.5 4.5-5.5 2.5 1.5-1.5 14.5 6 14 4.5 10.5 6.5 19 7 1 2 8-5 6.5-11.5-0.5 7.5 15.5-13-6 8.5 33 2.5 3.5-1 5 7 6-0.5 4-10 1 3.5 16 5.5 0.5 12 8 4-4 3 1 4-3 14.5 2 2.5 3 6 0.5 8.5-10.5-6-13.5 4-11.5 5-6 4 1.5 4.5-8.5 7.5 4.5 1.5-4-2.5-5 18 2.5 12.5 2 10.5-3.5 3 5.5 1 4 8.5-6 10.5-27 9.5-13.5 5.5-20.5 4-2-4-7.5 1.5-7.5 6-5.5 2.5-24.5 5.5-6 2-13.5 4-24-5.5-7.5 9.5-3.5 2-4-4-5h8l12-7 21-6.5 22-6 10.5-14 9-13 3-15.5-12 0.5 14.5-14 8.5-9-9.5-8-5-20-10-13.5-13.5-7.5-1.5-12-12.5-2-11-1-5-23 3-34-2.5-9 3.5-7.5 8 2.5-1-14.5 8.5-27-3.5-8.5-1.5-6v-8l4.5 7 4.5 3 3.5-6 9-6 14-20 3.5-14.5 9-15 6.5 4.5 12-10.5 7.5-10 5 8.5 6-6-2-2.5 12.5-9 19-12 11-24.5 18.5-20.5-12-14.5-2-11.5 18-22.5-5.5-12 10.5-8.5 11-14 8.5-10 15.5 1 8.5-6 18.5-0.5 4.5-3.5-5-17.5-9-10.5-1-14.5 7.5-8-1.5-24-10.5-18.5 0.5-8 5.5-1.5-2-12-7-2 0.5-8 2-1.5-2.5-13.5 1.5-8 3-3-8-15-4.5-0.5-2.5-9.5-16.5-13-9-0.5-6-8.5-4-2.5-4-5-3.5-0.5v-6l-8.5-6.5-7-1 1-5.5-4-12.5-2-1.5-2.5 5.5-12-1z" fill-rule="evenodd"/>
 </g>
</svg>
