<?xml version="1.0" encoding="UTF-8"?>
<svg viewBox="0 0 570 512" xmlns="http://www.w3.org/2000/svg">
 <g stroke="#000" stroke-linecap="round" stroke-linejoin="round">
  <circle cx="283" cy="261" r="133.42" stroke-dasharray="null" stroke-width=".688"/>
  <g transform="matrix(1.4198 0 0 1.4198 15.322 -182.22)" fill="#fff" fill-rule="evenodd" stroke-width=".445">
   <polyline points="191.61 365.54 191.27 366.51 191.14 370.78 190.26 372.75 187.04 373.9 185.65 376.62 185.71 380.59 188.23 382.5 192.03 384.79 196.19 388.88 198.91 392.06 201.07 392.18 201.28 394.52 200.22 396.88 200.62 398.5 200.84 398.68 210.18 396.83 219.18 394.13 227.85 390.5 238.07 384.86 247.13 378.23 247.28 375.55 248.83 371.56 251.66 367.56 253.25 365.2 250.9 363.43 249.64 363.26 246.62 364.58 240.71 365.92 235.87 366.56 231.89 361.95 225.6 362.07 220.95 361.26 215.54 359 211.25 359.98 205.36 360.08 203.03 361.19 198.71 359.68 195.85 360.98 193.39 362.99 192 364.42 189.79 363.95 186.38 363.65 183.49 361.55 182.95 360.1 183.8 357.58 183.96 355.44 181.97 354.01 178.93 353.18 175.52 353.23 175.13 351.61 176.19 349.6 176.7 346.18 174.69 344.97 172.02 345.9 170.96 347.72 169.01 348.29 166.48 347.44 163.03 344.64 162.66 341.05 163.13 337.8 165.97 333.96 169.72 333.18 172.06 333.49 173.67 334.38 175.28 334.17 177.08 333.23 180.12 333.52 183 334.74 185.02 337.76 186.65 340.07 188.44 339.51 187.87 336.64 186.76 334.3 187.26 331.42 188.66 329.05 192.2 326.49 194.33 324.65 194.48 321.24 195.88 317.42 197.63 314.85 198.88 314.49 199.59 312.68 201.33 309.95 202.94 309.2 204.56 310.06 205.8 308.62 208.47 307.12 210.42 306.01 209.68 304.22 206.99 304.64 205.74 304.28 205.55 302.33 203.75 301.82 201.98 303.26 200.02 304.22 199.82 303.33 201.76 301.3 204.96 299.63 206.95 299.42 209.63 298.28 210.49 296.29 209.56 293.77 206.84 290.59 201.95 286.89 199.07 286.58 197.46 286.26 195.82 284.14 190.98 282.07 189.18 282.63 189.21 285.7 189.43 289.65 190.72 291.06 189.66 292.69 189.18 296.13 188.67 299.2 186.67 297.42 185.23 295.11 185.01 292.42 182.67 291.38 179.06 290.54 177.78 288.6 178.09 284.44 180.22 281.16 183.58 277.88 186.61 275.65 188 273.84 186.37 272.07 184.23 272.83 181.9 272.14 181.5 269.8 181.29 267.64 179.68 267.67 179.19 270.76 177.76 272.04 176.52 271.15 176.46 267.37 175.54 264.9 173.54 263.84 171.92 261.34 169.23 261.58 167.63 263.05 169.62 264.79 170.02 266.94 172.36 268.71 172.03 271.06 164.78 265.43 161 262.08 158.99 259.23 158.97 256.7 158.2 253.32 156.56 252.61 153.53 252.66 152.27 253.4 150.66 253.08 148.87 253.26 148.19 255.09 147.48 256.36 144.05 255.71 141.93 257.17 140.71 259.73 140.01 261.89 138.05 261.58 136.04 259.98 136.79 262.32 139.87 263.7 143.28 264.91 146.16 266.48 147.28 269.5 147.5 272.92 146.31 277.98 144.75 283.22 144.44 287.37 144.48 289.72 145.05 292.21 142.92 294.78 140.99 298.07 139.08 302.4 138.24 307.64 137.61 315.03 138.37 317.71 139.86 322.72 140.97 326.65 142.65 331.32 144.81 333.62 146.63 334.3 144.81 332.17 143.87 329.49 143.31 326.43 142.74 323.75 144.16 323.38 144.9 325.52 146.21 330.72 148.97 336.25 149.74 339.28 149.02 341.28 150.69 343.77 153.92 345.33 158.82 349.75 161.86 350.96 166.56 352.48 171.94 354.73 174.66 356.5 177.19 358.76 179.22 363.23 183.17 364.78 185.71 365.64 188.57 365.25 191.61 365.54"/>
   <polyline points="181.51 345.21 183.65 344.26 187.07 345.1 191.02 346.3 194.06 346.6 196.78 347.83 196.07 349.26 192.85 349.69 190.16 347.75 186.9 346.17 181.51 345.21"/>
   <polyline points="197.67 348.7 197.54 350.14 199.87 351.02 202.02 351.33 205.77 350.73 203.24 349.31 203.41 348.42 201.96 347.9 197.67 348.7"/>
   <polyline points="211.03 296.1 212.3 297.35 214.66 299.27 217.17 301.38 217.92 302.98 213.96 303.07 211.44 300.24 210.52 298.26 211.03 296.1"/>
   <polyline points="194.19 281.48 191.85 280.79 188.98 280.29 191.82 278.1 191.96 275.02 190.67 273.07 187.26 272.05 184.91 271.01 182.56 267.98 184.5 266.14 187.21 266.84 190.63 268.59 193.88 270.31 195.16 273.17 196.25 274.04 198.94 275.25 200.6 278.12 199.17 279.74 198.68 282.11 196.55 282.49 194.19 281.48"/>
   <polyline points="207.24 278.71 210.48 280.81 211.93 281.52 215.15 280.56 219.05 279.22 215.28 277.85 214.01 275.88 214.33 272.46 214.61 266.53 216.74 264.51 216.71 261.28 213.27 257.92 209.65 255.28 205.31 253.91 201.73 251.64 197.58 251.53 194.38 252.66 192.78 254.68 190.98 254.89 190.82 253.45 188.3 253.48 185.28 254.8 185.82 256.78 184.44 260.22 185.91 262.36 188.76 264.1 189.99 259.76 191.39 258.12 192.35 261.15 194.85 263.63 197.2 264.68 200.83 267.47 203.92 270.31 204.68 275.71 206.85 276.91 207.24 278.71"/>
   <polyline points="219.42 263.92 219.83 266.97 220.9 268.59 222.88 269.44 225.37 266.53 226.39 262.9 224.22 261.32 221.9 262.08 220.84 263.52 219.42 263.92"/>
   <polyline points="257.42 249.04 258.7 252.08 258.56 255.12 259.3 257.64 261.83 259.22 261.66 261.21 259.53 261.94 258.1 261.81 256.16 262.74 260.11 264.48 259.59 266.1 256 266.15 256.39 268.14 257.3 270.62 257.36 273.51 259 276.17 260.27 278.68 262.27 280.46 261.38 281.7 261.04 282.98 260.36 285.72 258.23 287.36 254.81 285.26 254.61 283.27 252.59 281.52 252.58 278.99 254.33 277.15 254.14 274.48 250.88 273.63 249.27 273.66 248.19 271.87 248.5 267.72 246.12 263.27 243.78 261.69 243.01 258.84 242.41 254.89 239.51 250.6 238.75 247.38 236.4 246.53 233.9 245.12 232.44 244.25 231.56 245.18 232.84 246.59 230.71 248.24 232.67 248.74 234.86 250.34 237.21 252.64 240.1 254.21 237.24 255.52 236.37 257.34 233.84 256.83 230.8 255.27 228.4 251.34 226.58 249.94 222.46 247.86 219.38 246.29 217.22 243.26 219.69 241.79 224.16 241 223.62 239.02 221.82 238.5 221.29 239.59 218.22 239.65 218.74 237.65 216.77 236.81 215.5 235.02 211.88 232.73 206.46 229.04 205.37 229.62 204.35 230.89 202.02 231.65 200.56 230.97 197.87 230.47 194.3 230.73 192.52 231.83 188.77 232.43 185.36 231.94 183.01 231.09 182.65 229.3 179.04 229.18 177.63 230.48 173.88 230.73 170.47 231.5 170.5 233.47 168.72 234.56 164.96 235 163.55 236.11 164.1 237.9 162.49 238.84 158.02 239.45 157.69 241.07 157.54 243.08 156.11 243.97 153.63 246.55 151.85 248.37 149.56 250.22 146.7 250.8 147.41 249.72 148.8 247.54 148.42 246.27 146.12 246.32 144.84 244.54 143.73 242.74 145.5 240.75 147.44 239.1 149.05 238.88 150.48 236.16 150.07 233.12 152.21 232.17 155.22 230.69 155.38 227.28 153.74 225.83 152.12 225.32 160.47 222.33 167.48 220.38 174.29 219.06 182.82 218.08 190.41 217.89 199.29 218.47 210.32 220.35 221.1 223.61 228.44 226.78 236.03 230.78 242.44 234.96 248.45 239.48 253.73 244.45 257.27 248.18 257.42 249.04"/>
   <polyline points="236.59 260.03 234.98 260.78 235.7 262.37 237.36 264.86 237.92 266.65 238.67 269.33 241.21 271.45 242.98 271.6 242.26 270.01 240.06 268.07 239.88 266.96 242.05 267.86 244.41 269.06 246.56 269.75 246.54 267.95 246.62 267.77 246.69 267.58 246.74 267.39 246.74 267.2 246.75 266.82 246.71 266.46 246.63 266.1 246.57 265.83 246.51 265.68 246.49 265.59 245.06 264.74 240.55 262.84 238.57 261.95 236.59 260.03"/>
   <polyline points="263.6 256.09 263.44 258.47 264.19 261.15 263.48 262.61 262.24 262.64 263.33 264.42 265.52 267.24 265.73 271.03 263.77 270.53 262.5 270.73 262.2 275.04 262.43 278.81 261.91 280.62 262.12 283.87 261.06 285.69 260.4 288.03 261.49 291.26 263.33 295.54 263.19 298.61 263.09 304.92 263.88 310.64 265.37 315.3 267.75 320.48 270.84 323.85 274.44 324.69 276.54 321.39 277.97 319.23 279.92 318.34 280.39 312.54 280.45 307.16 280.22 301.64 279.53 295.15 278.06 287.53 276.25 281.02 274.2 275.24 271.65 269.5 269.03 264.39 265.85 259.28 263.6 256.09"/>
  </g>
 </g>
</svg>
