
<svg width="206px" height="468px" viewBox="0 0 206 468" version="1.1" xmlns="http://www.w3.org/2000/svg" xmlns:xlink="http://www.w3.org/1999/xlink">
    <!-- Generator: Sketch 43.2 (39069) - http://www.bohemiancoding.com/sketch -->
    <desc>Created with Sketch.</desc>
    <defs></defs>
    <g id="Page-1" stroke="none" stroke-width="1" fill="none" fill-rule="evenodd">
        <path d="M176.822308,466.91017 C174.684408,466.58342 171.221508,465.48127 169.127208,464.46107 C166.643108,463.25087 163.208008,462.37757 159.244908,461.94867 C150.287908,460.97922 149.711708,460.67037 149.239908,456.58367 C148.920328,453.82187 147.791708,451.76887 143.713308,446.53567 C140.894708,442.91837 138.228708,439.17307 137.789708,438.21277 C137.244538,437.02097 137.535558,431.65767 138.705478,421.32077 L140.420278,406.17477 L137.436378,391.60677 C135.795278,383.59427 133.664878,371.41977 132.701978,364.55177 C131.739088,357.68397 130.638278,350.97177 130.255478,349.63677 C127.699578,340.72467 124.715878,332.96677 122.303078,328.96477 C120.762278,326.40797 116.427078,317.13577 112.669478,308.36077 C108.912178,299.58517 105.490078,291.85877 105.065278,291.19077 C104.437588,290.20444 103.163678,289.97877 98.2715784,289.98737 C94.9602784,289.99329 91.8142784,290.22892 91.2808784,290.51108 C90.2771784,291.04184 90.0347784,293.11518 88.5833784,313.56308 C87.7957784,324.66108 87.0499784,332.49108 85.5083784,345.85008 C85.1062784,349.33328 85.3335784,352.15688 86.3003684,355.69068 C87.0462184,358.41628 88.0369684,365.27118 88.5025684,370.92368 C88.9676584,376.57618 89.7679684,384.30768 90.2813684,388.10468 C91.1607684,394.61348 90.9171084,403.48768 89.7933284,405.85468 C89.4744784,406.52634 90.9266284,408.63308 93.7083284,411.53498 C96.1404284,414.07198 99.5665284,418.46858 101.322128,421.30528 C104.497428,426.43678 104.508628,426.48348 103.504228,430.50488 C102.332128,435.19868 101.483228,436.94388 98.3167284,441.16988 C96.3821284,443.75218 96.0061284,445.02208 96.0061284,448.97428 C96.0061284,455.31898 95.0603284,456.05258 85.4661284,457.14658 C81.3951284,457.61081 76.1858284,458.70518 73.8911284,459.57868 C67.9148284,461.85308 62.0571284,462.71298 52.5431284,462.71298 C42.7521284,462.71298 38.7691284,461.67038 37.9291284,458.88748 C37.3143784,456.85098 38.3485584,455.43168 45.3788284,448.66548 C47.6578284,446.47168 50.0170284,444.67658 50.6202284,444.67658 C51.2237484,444.67658 52.1590284,443.97419 52.6988284,443.11568 C53.2386284,442.25722 54.7977284,440.76548 56.1632284,439.80078 C58.7950284,437.94148 59.1139284,435.15368 56.6559084,435.49398 C55.9305684,435.59441 54.9559084,435.28222 54.4899084,434.80025 C53.6329784,433.91368 50.7943084,411.51925 49.2785084,393.68825 C48.8246484,388.34655 48.4369584,377.57625 48.4174284,369.75525 C48.3751924,352.69125 47.5136184,343.99225 44.7145284,332.35925 C43.0841284,325.58185 38.4240284,295.23025 38.4240284,291.38725 C38.4240284,290.94514 35.4079284,290.67082 30.5453284,290.67082 C25.9528284,290.67082 22.4413284,290.36766 22.1261284,289.9438 C21.8290084,289.54396 22.2203664,284.5288 22.9959984,278.7988 C23.7718784,273.069 24.2745984,268.2908 24.1133984,268.1808 C23.9520184,268.07069 21.7544984,266.8914 19.2300984,265.56 C15.3303984,263.5032 14.1070984,262.3025 11.0935984,257.5718 C8.09799843,252.8694 7.54699843,251.3788 7.54699843,247.9789 C7.54699843,245.1181 7.12438843,243.5657 6.08659843,242.6135 C5.06509843,241.67643 4.32639843,239.0527 3.62879843,233.8873 L2.63119843,226.5011 L3.08649843,238.4891 C3.08649843,238.4891 2.54759643,222.9698 2.11789643,218.1754 C1.00709643,205.7924 0.682796431,165.1504 1.63645643,157.8214 C2.86105643,148.408 7.90945643,121.0584 9.67555643,114.2704 C14.5114564,95.6854 17.1718564,87.6984 18.9965564,86.2904 C22.9882564,83.2089 27.9599564,80.8261 36.1725564,78.0583 C48.0875564,74.0427 49.0155564,73.562 55.1565564,68.2259 C63.3245564,61.1277 64.0325564,59.8723 64.7217564,51.2639 L65.3108564,43.9083 L62.0405564,41.2049 C58.1372564,37.9783 56.2732564,33.3985 57.3935564,29.7869 C57.9147964,28.106 58.6733564,27.3364 59.9614564,27.1802 C61.6181564,26.97934 61.7900564,26.55376 61.7900564,22.6488 C61.7900564,13.0342 65.3418564,7.6088 73.9400564,4.0898 C81.5316564,0.983 88.3920564,0.6113 94.5920564,2.9709 C99.7998564,4.9529 106.312056,9.6167 108.314056,12.7976 C110.011356,15.4944 110.006956,21.9741 108.304779,27.2286 C107.061879,31.0647 107.073379,31.2175 108.602389,31.2175 C112.392189,31.2175 109.353119,41.0752 104.548389,44.3675 C101.611589,46.3796 101.568689,46.4849 101.568689,51.6471 C101.568689,54.5279 101.725179,57.0001 101.916349,57.1408 C102.107269,57.28149 107.275949,60.4324 113.401349,64.1428 C123.396749,70.197 125.275349,71.0574 131.716349,72.5305 C140.433649,74.5242 148.417349,77.7026 152.243349,80.7021 C155.631749,83.3584 156.452849,85.4631 168.256349,121.7481 L176.381149,146.7221 L176.337949,158.5411 C176.283506,173.2131 174.127049,183.0111 164.331949,213.0841 L160.115349,226.0301 L163.137049,237.0171 C175.191049,280.8471 175.967049,284.0451 174.885049,285.4651 C173.638249,287.1019 168.761749,288.4588 163.857049,288.5336 C161.933749,288.562866 160.136349,288.88733 159.863649,289.25458 C159.590459,289.62177 159.735959,291.88508 160.187139,294.28408 C160.638559,296.68308 161.437339,303.17238 161.962739,308.70508 C162.516699,314.53858 163.561339,320.36708 164.450039,322.57908 C165.293299,324.67758 166.198539,328.89198 166.462439,331.94428 C166.725869,334.99668 167.926339,345.29828 169.129239,354.83728 C171.195639,371.22328 171.723439,373.57828 178.688339,397.50128 C186.618739,424.74028 189.469339,436.15128 189.469339,440.65528 C189.469339,443.62648 191.549939,446.56498 196.319139,450.32908 C197.600839,451.34068 198.648939,452.63408 198.648939,453.20318 C198.648939,453.77239 199.163099,454.40208 199.791539,454.60248 C201.505439,455.1492 205.325239,461.22728 205.325239,463.40738 C205.325239,464.45718 204.780319,465.69208 204.114539,466.15148 C202.608939,467.19018 182.341539,467.75128 176.820539,466.90722 L176.822308,466.91017 Z M25.3832754,254.66457 C24.9150154,251.73117 24.6108154,251.31167 23.0795754,251.49337 C20.7235754,251.77288 20.3817754,254.56257 22.1586754,259.00937 C23.7541754,263.00217 24.6476754,263.34517 25.3922754,260.25017 C25.6840584,259.03737 25.6799084,256.52377 25.3832754,254.66457 Z" id="Combined-Shape" stroke="#000000" fill="#000000"></path>
    </g>
</svg>
