<?xml version='1.0' encoding='utf-8'?>
<svg xmlns="http://www.w3.org/2000/svg" version="1.1" width="600px" height="976px" viewBox="0 0 600 976"> <g id="layer1"> <g style="fill:rgb(0,0,0); fill-opacity:1.0; stroke-linejoin: miter"> <path d="M363.62094,228.41075C363.72092,228.41075,363.814,228.41734,363.89822,228.43109C366.77042,228.9621,369.7758,230.36688,371.26492,231.91644C372.1581,232.83466,375.06717,235.35101,377.7361,237.52167C380.40616,239.75067,382.5452,241.69696,382.55057,241.98895C382.55475,242.2183,382.953,242.44035,383.40952,242.44035C383.41806,242.44035,383.42664,242.44028,383.4352,242.44012C383.43906,242.44005,383.44293,242.44002,383.4468,242.44002C383.91406,242.44002,384.61627,242.94902,385.0336,243.5788C385.45145,244.20953,386.09808,244.7207,386.44998,244.7207C386.45224,244.7207,386.45447,244.72069,386.4567,244.72064C386.45798,244.72061,386.4593,244.72061,386.4606,244.72061C386.8158,244.72061,387.99542,245.57213,389.11905,246.54095C398.68533,255.2431,400.94656,257.47968,400.9606,258.2387C400.96927,258.706,401.62344,259.33636,402.44656,259.61322C403.26944,259.89008,403.92166,260.404,403.92703,260.69598C403.9335,261.04633,404.94888,262.25433,406.1979,263.45795C407.38858,264.66254,409.76993,267.07196,411.4374,268.79364C413.105,270.51532,414.8892,272.2348,415.30557,272.63593C415.77933,272.97797,416.67365,273.95456,417.33112,274.76022C418.58783,276.37253,429.3565,286.9221,430.9571,288.17746C432.43866,289.31857,432.12714,291.42722,430.1319,294.093C429.10455,295.3972,427.50824,297.52975,426.53925,298.83273C425.62872,300.13498,423.34247,302.86447,421.51166,304.94284C419.68073,307.0212,417.68536,309.68698,417.06464,310.8669C416.50226,312.04562,415.649,313.28806,415.2447,313.52927C414.7818,313.7717,414.09723,314.6606,413.70355,315.48557C412.85785,317.13693,410.97723,319.68356,405.94952,325.79367C404.0074,328.16623,402.24237,330.65256,402.08026,331.35666C401.85846,332.0034,401.11334,332.77634,400.41693,333.02292C399.08136,333.4565,396.4339,335.6086,392.3559,339.36447C391.0938,340.61447,389.53754,341.75314,389.01532,341.9382C388.49286,342.12302,387.74994,343.01315,387.35858,343.95505C387.02533,344.89597,386.10944,345.90573,385.2984,346.2712C384.5468,346.6943,383.91415,347.23166,383.91843,347.4653C383.9238,347.7573,382.7689,348.47946,381.37704,349.03098C379.98532,349.58273,378.42587,350.5461,377.85373,351.1992C377.33908,351.79294,375.48752,352.76193,373.8038,353.31882C372.31717,353.84518,371.47418,354.0934,370.61847,354.0934C369.8707,354.0934,369.1132,353.90384,367.90793,353.54465C362.3276,351.89572,359.73764,350.8337,359.25534,350.02463C359.01614,349.5677,358.4372,349.23053,357.97284,349.23053C357.96707,349.23053,357.96127,349.2306,357.95554,349.23068C357.95316,349.2307,357.95074,349.23074,357.94833,349.23074C357.47617,349.23074,356.29932,348.37994,355.3503,347.3513C354.39755,346.37595,351.55124,344.09177,349.12448,342.38425C344.74484,339.31076,343.54013,337.3469,345.2142,336.26437C345.6771,336.0222,345.71286,334.7949,345.37973,332.58102C344.77304,328.2109,344.76987,328.03586,345.57663,324.28195C346.16708,321.46725,346.08713,320.30026,345.06198,315.41232C344.0378,310.58273,344.00974,309.06442,344.49863,303.91428C344.78964,300.69626,345.00705,296.66135,344.9758,294.968C345.00168,293.2148,345.42673,290.92868,346.04416,289.5737C346.6628,288.27707,347.1451,285.9316,347.11484,284.29636C347.077,282.2524,347.51498,280.66696,348.47763,279.01364C350.00778,276.47336,350.20682,274.60028,349.1956,273.62592C348.00613,272.47968,348.99344,262.7055,351.06558,254.7226C351.55887,252.96088,352.08658,249.91351,352.28445,247.98187C352.7355,243.94281,354.69522,236.1955,355.77335,234.48138C356.17032,233.83148,356.67313,232.5954,356.88943,231.65668C357.10257,230.54291,357.61942,230.0661,358.55374,230.04877C359.25345,229.97748,360.4733,229.60419,361.28226,229.12201C361.98538,228.70264,362.95587,228.41075,363.62094,228.41075 Z M196.62198,226.61946C197.15302,226.61946,198.68982,227.9309,199.99991,229.53603L202.45035,232.52846L202.56705,238.83534C202.63089,242.28088,202.45242,245.26355,202.22208,245.443C201.93326,245.62341,201.37845,247.21106,201.0032,249.02893C200.40945,251.66858,200.43216,252.8949,200.99564,254.92908C201.4302,256.32336,201.76541,258.6537,201.79141,260.05505C201.81949,261.57336,202.19693,263.02698,202.73221,263.54285C203.20804,264.00134,203.63516,264.9867,203.64932,265.74573C203.72171,266.50378,204.1608,268.13123,204.65164,269.4076C205.14261,270.68347,205.87259,275.40198,206.3062,279.892C206.68144,284.3832,207.42534,289.8605,207.93462,292.12955C209.21062,297.94742,210.20012,307.2174,210.85844,320.6996C211.15263,327.12024,211.6143,333.12878,211.86638,334.11707C212.43071,336.2096,211.23357,347.27258,210.17473,350.03772C209.67082,351.21545,208.98405,351.98743,208.34172,351.9994C206.35612,352.036,197.8366,355.69885,195.4174,357.55457C194.61174,358.21204,192.0606,359.25256,189.85345,359.9359C187.64508,360.5609,184.79987,361.48987,183.52496,362.03918C181.99367,362.65186,180.86868,362.98575,179.89832,362.98575C178.44339,362.98575,177.33604,362.23508,175.72784,360.54773C174.41705,359.17004,172.32684,356.6969,171.1297,355.14172C169.93146,353.5282,168.79596,352.1471,168.56024,352.03455C168.3244,351.92224,167.482,350.59412,166.63641,349.09094C165.78961,347.52942,164.64984,345.91467,164.05939,345.57507C163.52618,345.17615,162.61884,343.4989,162.1225,341.9308C161.50397,340.07288,160.65948,338.62805,159.7143,338.0614C158.88593,337.49255,158.22626,336.5702,158.21222,335.8109C158.19928,335.11023,157.76874,333.94983,157.28864,333.2577C156.80963,332.62415,155.04266,328.6842,153.33185,324.62683C151.6211,320.5692,149.43121,315.8778,148.46437,314.1432C147.44038,312.46814,146.64558,310.55505,146.63258,309.85437C146.62068,309.21204,146.07234,307.99548,145.41487,307.18958C144.75746,306.3839,144.21126,305.2843,144.20155,304.75867C144.19075,304.17468,143.21425,301.91443,142.06252,299.6576C140.91084,297.40054,139.9344,295.1403,139.92574,294.67325C139.91817,294.26456,139.43477,293.39713,138.78261,292.88345C138.18892,292.36856,137.10103,290.4025,136.36574,288.54678C135.07784,285.24088,135.07454,285.06583,136.0262,282.82828C136.69997,281.35513,138.92987,278.74377,142.14612,275.7633C146.45341,271.76965,154.36638,263.73694,162.78642,254.70154C163.81706,253.57263,165.1873,251.85315,165.69658,250.96765C166.26445,250.08069,167.41179,248.94958,168.22087,248.46716C169.02971,247.98499,171.38725,245.95496,173.39555,243.99036C175.40361,242.02527,177.36002,240.41174,177.65201,240.40637C177.94388,240.401,179.21255,239.50111,180.41934,238.42738C181.62735,237.412,183.63992,235.6808,184.96573,234.72157C186.29056,233.70375,188.30533,232.08925,189.45486,231.07509C190.6044,230.06044,192.50552,228.62343,193.6022,227.902C194.69986,227.23915,196.03214,226.63026,196.61612,226.61952C196.61806,226.61949,196.62001,226.61946,196.62198,226.61946 Z M295.07986,635.4704L295.69083,646.3831C295.97842,652.4533,296.68668,659.15814,297.19595,661.42694C297.70413,663.6374,298.10648,666.4339,298.1271,667.5435C298.20596,668.6519,298.58548,670.2222,299.06778,671.03107C299.5502,671.84015,299.92862,673.352,300.00638,674.40204C300.02594,675.4533,300.40875,677.19867,300.89545,678.24115C302.17682,681.1967,302.7315,689.0728,303.38763,715.0562C303.68378,727.9025,304.40167,744.5966,304.89142,752.12335C305.43964,759.649,306.24738,771.7265,306.67334,778.96246C307.09937,786.1983,307.65088,793.8991,307.86816,796.1734C308.43262,801.4205,307.51868,818.32,306.45874,821.0268C306.07043,822.14386,305.4109,824.3759,305.0885,825.9007C304.70898,827.48505,303.86755,829.36993,303.12244,830.1431C302.37732,830.91644,301.64307,832.2735,301.42676,833.21234C301.20935,834.0926,300.70532,835.2702,300.30518,835.74493C298.81934,837.52496,298.22885,840.3399,297.88266,846.8891C297.2391,859.46063,296.64633,865.3133,295.50107,869.7159C294.24655,874.52936,294.12552,877.45245,295.07278,881.2906C295.63724,883.3831,295.53445,884.1445,294.57742,886.0899C293.9578,887.3282,293.47,889.3818,293.4927,890.6081C293.5154,891.8344,293.26126,893.8837,292.87613,895.17596C292.5496,896.46735,292.0143,899.1059,291.64114,901.0406C291.28934,902.9864,291.04404,903.8175,290.7933,903.8175C290.70413,903.8175,290.6143,903.7124,290.5187,903.51495C290.21475,902.87787,290.40933,900.7713,290.89395,898.5424C291.37943,896.37213,291.8727,891.4559,292.03494,887.59735C292.19717,883.73883,292.59415,879.93427,292.98782,879.1093C293.3815,878.2841,293.80325,875.8228,293.93735,873.6003C294.13095,871.43536,294.5007,869.3255,294.72678,868.9123C295.35507,868.1413,296.21603,860.99835,296.6108,853.92267C296.87155,849.0693,295.61606,841.2061,294.36166,839.7105C294.06308,839.36554,292.28317,834.72516,290.3746,829.4444C287.05038,820.27606,286.9205,819.57745,286.8762,814.0286C286.81784,810.8752,286.978,806.89984,287.2408,805.3177C288.8187,795.88336,289.3293,788.7469,289.56512,773.08673C290.00238,743.0522,288.98944,716.7248,287.31757,714.7696C285.70514,712.87164,287.63263,690.7542,289.72186,686.86005C290.06146,686.2696,290.26593,684.68854,290.23993,683.28705C290.21405,681.88544,290.6358,679.42413,291.13226,677.8377C291.96268,675.3686,292.02335,672.3299,291.7792,655.9776C291.64407,645.5234,291.53812,636.64594,291.58902,636.236C291.6409,635.8846,292.45206,635.5191,293.38638,635.5018L295.07986,635.4704 Z M284.10364,9.528412C281.8801,9.528412,279.85358,9.7754345,277.78427,10.2590275C275.7609,10.772417,274.5313,10.918656,269.85486,10.918656C268.21555,10.918656,266.15265,10.900686,263.4835,10.874261C262.82275,10.866064,262.22482,10.861467,261.6808,10.861467C257.55807,10.861467,256.5318,11.125463,254.74338,12.087395C253.47153,12.812004,251.91647,14.009025,251.28696,14.721915C250.65768,15.434561,249.15988,16.572256,248.00278,17.177725C246.7883,17.842762,245.81174,18.73705,245.8204,19.20409C245.83005,19.729725,243.89218,22.336168,241.54869,25.124985C239.20409,27.855696,237.26512,30.403301,237.2705,30.695293C237.27696,31.045635,236.3015,31.998516,235.08922,32.7805C233.87694,33.562237,232.15306,35.113018,231.29759,36.238747C230.44115,37.30613,228.89793,39.14573,227.92564,40.273415C226.89513,41.402565,225.01231,43.832493,223.70262,45.667454C221.42516,48.86447,221.3148,49.216766,220.84654,55.476284C220.2246,62.9067,218.09398,74.045364,216.79956,76.69795C216.23608,77.81831,215.48877,78.47481,214.6128,78.49092C211.46045,78.60762,208.4292,82.11055,208.49304,85.555855C208.51355,86.665474,208.0376,89.36152,207.37903,91.65205C206.55713,94.58784,206.35913,96.51947,206.68579,98.38275C207.07825,100.65375,206.86096,101.53412,204.94678,105.42474L202.80872,109.84588L202.9989,120.12371C203.15784,128.70818,203.36975,130.69035,204.21423,132.13518C206.20508,135.54485,207.05737,137.39836,208.11267,140.76726C209.16821,144.1359,209.17029,144.2526,208.04016,146.31802C207.41943,147.49796,205.81238,149.04654,204.54175,149.8295C202.86548,150.79532,202.12256,151.68521,201.85327,152.9169C201.58398,154.14883,201.12659,154.68301,200.36731,154.69717C198.557,154.73062,196.9414,155.81192,193.49915,159.20523C191.77858,160.9313,189.76381,162.5458,189.12477,162.73306C188.42824,162.9794,187.5696,163.93008,187.17824,164.87198C186.78773,165.87222,186.10097,166.64442,185.6338,166.65321C185.16664,166.66176,184.12843,167.38197,183.32594,168.21474C182.46632,169.10683,180.96742,170.18593,179.86537,170.61513C178.82289,171.10194,177.95998,171.81874,177.96852,172.28603C177.98586,173.22035,176.3788,174.76894,174.75233,175.2665C173.24269,175.76161,162.06279,187.18497,160.99431,189.42447C160.54326,190.30899,159.79814,191.08218,159.33098,191.09073C158.86382,191.09927,158.00835,192.22525,157.33257,193.58145C155.08525,198.41324,153.95079,200.24527,152.62926,201.4379C151.882,202.09439,151.14012,203.04263,150.91618,203.57266C150.63945,204.39542,147.80382,209.00478,144.10966,214.5641C143.42828,215.62807,142.33716,216.64174,141.69904,216.88686C141.06104,217.13246,139.9093,218.02992,139.10687,218.86269C138.30438,219.69545,135.37909,222.61195,132.62585,225.35023C129.87244,228.08827,127.64142,230.64174,127.64899,231.05043C127.65765,231.51747,126.9104,232.17397,125.92407,232.54286C124.99518,232.85194,124.188354,233.45107,124.193726,233.74306C124.200195,234.0934,123.34802,235.39442,122.31848,236.58168C119.86152,239.54823,116.22138,244.87292,116.23542,245.6322C116.24085,245.9242,115.4936,246.58069,114.56776,247.06506C113.41175,247.72913,112.78449,248.55847,112.57899,250.08093C112.36811,251.31189,111.85767,252.13904,111.390495,252.14755C110.92333,252.15634,109.77587,253.28745,108.80804,254.64877C104.20105,261.3939,102.4848,263.35336,100.79773,263.73495C99.40161,264.05283,99.059875,264.5267,98.74188,266.28525C98.38287,268.97885,97.77936,271.0931,96.39514,275.20786C93.84285,282.49866,96.02394,293.03207,101.782486,301.1622C102.62276,302.37338,104.1908,305.0316,105.16187,306.99985C106.191055,309.02274,107.212746,310.6378,107.44815,310.6378L107.45017,310.6378C107.68525,310.6378,108.52852,312.08093,109.3783,313.87338C110.17097,315.66977,111.55952,318.0975,112.456,319.191C113.41091,320.28333,114.13973,321.7887,114.15377,322.54773C114.17746,323.82663,115.54242,325.65918,116.47646,325.65918C116.48085,325.65918,116.48522,325.65915,116.489586,325.65906L116.49083,325.65906C116.963,325.65906,120.435715,330.49515,121.64693,332.8656C122.73695,334.9486,127.49519,342.68835,128.27058,343.55017C128.688,344.0099,129.42006,345.69055,129.97377,347.1991C130.52736,348.7079,131.558,350.73303,132.33443,351.6537C133.11092,352.57385,134.30916,354.18738,135.08772,355.2245C135.808,356.26257,137.12617,358.0492,137.90584,359.14465C138.74403,360.23914,139.88484,361.912,140.42781,362.83655C141.02797,363.70178,142.40462,365.48718,143.47957,366.75256C144.49599,368.01892,145.3968,369.34583,145.40224,369.63782C145.4087,369.9884,146.37221,371.54773,147.50996,373.04553C148.64864,374.60168,149.60889,375.98596,149.61212,376.161C149.62292,376.745,154.30661,383.61002,155.19882,384.46988C155.67355,384.87003,157.0394,386.07144,158.1683,387.10196C159.29733,388.13272,160.67183,389.80142,161.21577,390.78433C161.88081,391.99893,163.30183,393.02408,165.54036,394.0341C167.61192,394.9847,168.48364,395.3384,170.69186,395.3384C171.87503,395.3384,173.44188,395.23685,175.78255,395.0712C180.6241,394.6896,183.65218,394.16617,186.03023,393.246C190.34872,391.5608,194.081,390.4373,195.44707,390.4373C195.6221,390.4373,195.75829,390.45572,195.85188,390.4938C196.43892,390.65836,196.33736,391.47794,195.44612,393.8312C194.77681,395.53775,193.95381,398.41544,193.57747,400.17496C193.25948,401.93326,192.65498,403.98904,192.31746,404.69632C191.9217,405.40457,191.66438,407.27872,191.69466,408.91385C191.727,410.66568,191.29866,412.77664,190.68013,414.0734C190.0605,415.31155,189.0157,418.83597,188.37117,421.88553C187.72664,424.9352,186.84627,427.87234,186.44612,428.34708C185.58968,429.41446,182.6523,444.3068,181.9676,451.50476C181.6119,454.37378,181.14998,457.82898,180.88179,459.11902C180.6136,460.40918,180.06856,465.67676,179.69649,470.82434C179.32442,475.97205,178.72093,481.24078,178.45274,482.53094C178.12608,483.8222,177.81236,488.9687,177.72911,493.9356C177.64574,498.90265,177.38072,503.52252,177.10057,504.17035C176.37389,505.93622,171.80907,521.26764,170.77391,525.31757C170.28416,527.25446,169.57787,530.12994,169.14098,531.77374C168.76134,533.358,167.55443,537.58636,166.39403,541.1713C163.58434,550.33636,163.36485,551.0998,163.38976,552.44293C163.4027,553.14374,162.79478,555.02435,162.00645,556.6163C161.2191,558.26654,160.61034,560.0887,160.62108,560.67267C160.66429,563.0085,156.61522,577.8045,155.151,580.75256C154.1355,582.6992,151.24695,590.75574,151.26099,591.5149C151.26855,591.9237,150.76782,593.2766,150.1482,594.5148C149.41602,595.9888,149.04071,597.80664,149.08289,600.0841C149.1488,603.64636,149.8172,605.036,151.9411,606.16504C152.64935,606.5609,155.24695,608.0316,157.72778,609.50464C160.15015,610.97864,162.80383,612.33154,163.50793,612.4938C164.21301,612.71436,165.4502,613.27563,166.21802,613.72876C166.98584,614.1819,169.22864,615.42554,171.23364,616.43994C178.36987,620.105,179.78772,620.9551,180.39551,622.229C180.99222,623.4878,182.43712,624.0128,186.50662,624.0128C188.24055,624.0128,190.45096,623.91754,193.27527,623.74304C203.31314,623.207,212.44156,620.87665,215.13748,618.19794C216.34529,617.0105,217.33301,616.4168,218.10358,616.4168C219.41939,616.4168,220.10199,618.14795,220.16605,621.6099C220.2537,626.34,221.10367,628.07684,223.93167,629.3681C226.40701,630.549,227.68192,633.15436,228.36649,638.5744C228.63467,640.4388,229.07364,642.06635,229.3688,642.236C229.66519,642.4643,229.91934,643.5695,229.94205,644.79584C229.96365,645.9638,230.35721,648.2933,230.85355,649.86127C233.34402,658.1689,233.42288,659.2774,233.6867,679.8354C233.83356,690.93195,233.87994,706.0612,233.84186,713.4808C233.75421,727.6778,233.61249,726.33685,236.98322,744.3255C237.24042,745.6058,237.73676,747.174,238.09918,747.80975C238.46136,748.4456,239.28326,751.81866,239.93317,755.3702C240.70526,759.21124,241.5185,762.1171,242.11322,762.69037C242.76752,763.32074,243.33734,765.7054,243.9472,770.25055C244.36566,773.92316,245.13351,777.53094,245.55746,778.341C246.03976,779.14984,247.15903,782.8095,248.103,786.4722C249.04709,790.1351,249.98666,793.5643,250.22897,794.02716C250.47116,794.4899,251.09189,796.46466,251.65317,798.382C252.96811,803.1479,254.62595,807.4985,255.46298,808.5345C255.88034,808.9941,256.37888,810.67914,256.6406,812.19305C256.84494,813.76654,257.59103,816.20624,258.2606,817.65436C259.29428,819.8549,259.50082,821.54535,259.6273,828.37775C259.7148,833.108,259.545,836.5577,259.19907,836.79767C258.85287,837.0379,258.6755,840.0788,258.7479,843.9914C258.83652,848.77997,258.6472,851.1785,258.07834,852.007C257.62424,852.7164,257.21323,855.7618,257.11374,859.8527C256.9471,863.4776,256.59982,866.8138,256.31442,867.16974C256.02902,867.52545,255.64719,868.993,255.43942,870.39874C255.2319,871.80475,254.74301,873.79987,254.35251,874.8001C253.96225,875.8005,253.26367,879.0849,252.79199,882.01447C252.32166,885.0025,251.40125,888.9334,250.85071,890.7546C250.24304,892.6352,249.75525,894.6889,249.76929,895.44806C249.78333,896.2072,249.1626,897.387,248.47583,898.15924C247.21387,899.40924,247.05603,900.34686,246.61572,908.12445C245.9375,918.82733,246.86316,927.80646,248.89392,930.2225C249.61096,931.0854,251.52722,933.6204,253.14612,935.8687C258.47974,943.13055,258.06543,942.8461,262.63123,943.34576C265.09885,943.6162,267.16602,943.7614,268.9593,943.7614C273.46188,943.7614,276.23773,942.8461,279.28967,940.70074C280.67383,939.74054,282.11865,938.89594,282.469,938.88947C282.47052,938.88947,282.47205,938.8894,282.4736,938.8894C282.82922,938.8894,283.94714,939.6256,284.89465,940.53864C287.4513,942.90155,292.4664,944.3187,297.6392,944.3187C298.3589,944.3187,299.0816,944.2913,299.80118,944.23517C306.97537,943.6351,312.90802,942.2403,317.1938,940.2332C319.27777,939.2015,322.06024,938.0401,323.3958,937.6064C328.0395,936.00165,333.38083,927.8997,334.30453,920.98944C335.48337,912.0881,335.9614,906.3543,335.64572,905.07513C335.08432,903.15765,335.89352,883.7481,336.56943,882.392C336.90793,881.7432,337.38925,879.3392,337.69638,876.99677C338.0035,874.6545,338.35928,871.78534,338.51395,870.67255C338.6686,869.55975,339.2266,868.1474,339.7415,867.5538C340.4833,866.6053,340.6282,864.96686,340.43362,857.6099C340.2012,848.20917,338.8517,841.5745,336.2498,836.7155C335.1608,834.6912,335.0895,833.9915,335.5081,828.2003C335.7947,824.7484,336.34842,819.9479,336.77127,817.54517C337.19412,815.1422,337.5446,811.9811,337.57706,810.5785C337.5457,808.885,337.9296,807.5343,338.61636,806.7622C339.6459,805.5747,340.86368,798.7759,340.78592,794.5713C340.7675,793.5785,341.09402,792.28723,341.55264,791.8114C341.9517,791.2783,342.70645,787.8761,343.22354,784.2446C343.68216,780.6144,344.8749,775.62683,345.76282,773.0983C346.7102,770.6274,347.80896,766.8683,348.23718,764.7573C349.521,758.36597,350.53003,752.91455,351.0459,749.22473C351.7683,744.0707,352.46582,740.728,353.3506,738.0244C353.79395,736.73096,354.31958,733.5668,354.5056,730.9929C354.69275,728.47754,355.1405,724.2632,355.5017,721.68616C355.92126,719.10803,356.22095,710.048,356.29688,701.5176C356.36084,689.1903,356.1554,684.40393,355.27515,677.87756C354.66635,673.39056,353.82187,665.6368,353.43796,660.6784C353.05417,655.72003,352.58163,649.1276,352.3502,646.0942C352.05502,642.76984,352.14804,638.32837,352.55368,634.9911L353.26865,629.4282L360.2092,628.8324C370.53354,627.9988,382.65207,626.25574,384.7966,625.3397C385.8392,624.85315,388.28207,624.2821,390.20493,624.01294C392.12766,623.74365,393.98654,623.1836,394.32944,622.7683C394.72958,622.2936,396.12473,621.9171,397.7014,621.88794C402.60678,621.7971,423.36697,616.6814,425.14932,615.12964C425.61002,614.7705,426.7681,614.2234,427.69827,613.9724C429.73233,613.40906,437.89835,609.57764,440.55435,607.8928C442.28787,606.8677,442.45547,606.45557,442.41006,604.0029C442.382,602.4846,441.809,599.9248,441.13626,598.30164C440.46365,596.6783,439.90567,594.9362,439.89603,594.4106C439.88626,593.8851,439.39212,592.43365,438.72476,591.1025C437.68997,588.8433,437.01505,587.10333,434.12564,579.3289C433.3881,577.3564,432.59537,575.56,432.35757,575.3309C432.11954,575.1015,431.92715,574.17035,431.91202,573.35297C431.89572,572.4769,431.1473,569.9204,430.2899,567.7748C429.37277,565.5718,428.13034,561.5642,427.49655,558.8887C426.86288,556.21326,425.87888,553.5442,425.3425,552.97C424.80612,552.39575,424.12704,550.4221,423.85873,548.5576C423.59067,546.69336,423.08017,544.3661,422.7125,543.43823C422.34384,542.4519,421.40732,539.1979,420.65036,536.1742C419.8934,533.1505,418.9028,530.1312,418.48227,529.49634C418.00302,528.8627,417.62997,527.6428,417.61374,526.76685C417.5986,525.94934,417.27963,524.49475,416.9714,523.62415C416.60495,522.75464,416.03928,520.60376,415.7723,518.7977C415.44675,516.9929,414.93747,514.724,414.56967,513.79614C414.20102,512.8098,413.64194,511.00916,413.26767,509.73108C411.70074,503.97662,410.34576,500.20465,409.39203,499.17072C408.85565,498.5965,408.23383,496.5633,407.96466,494.64056C406.95575,487.47394,402.30786,473.0725,400.0304,469.96008C399.49072,469.2107,399.00403,468.1682,398.9944,467.64258C398.97815,466.7666,396.43152,458.5769,395.01917,454.86426C393.05652,449.81824,392.625,448.5995,391.81506,445.8689C391.37598,444.24133,390.4546,441.80493,389.78528,440.35693C387.59106,435.432,382.50513,422.61597,381.8186,420.23364C381.44336,418.89697,380.83557,417.62292,380.5404,417.45313C380.24512,417.28345,379.69043,415.7163,379.24805,413.91357C378.6803,411.64587,378.01416,410.37292,377.0691,409.80627C376.06445,409.18237,375.69897,408.37134,375.67188,406.91138C375.65137,405.80188,375.21228,404.17432,374.72778,403.2484C374.2445,402.38123,373.6194,400.17297,373.41077,398.36584C373.07666,396.09375,372.2179,393.8899,370.651,391.29004C369.3274,389.21143,368.29895,387.30273,368.29675,387.18604C368.295,387.0892,368.6505,387.03925,369.196,387.03925C369.63815,387.03925,370.20514,387.07208,370.80786,387.1394C371.18665,387.18637,371.54907,387.2117,371.91464,387.2117C373.52664,387.2117,375.1994,386.71912,378.60388,385.41797C381.44482,384.25537,384.63293,382.91138,385.61584,382.3672C386.599,381.8235,387.93457,381.38965,388.63538,381.3767C389.2777,381.365,389.97095,380.9431,390.1947,380.41333C390.3612,379.94287,391.3357,378.93164,392.37378,378.21167C398.14,374.13232,404.92816,368.457,405.31647,367.34006C405.65057,366.45773,406.45856,365.91696,407.85565,365.6572C410.24347,365.26266,415.53717,360.90036,422.9926,353.40158C430.33344,346.0222,435.50494,341.36984,437.64514,340.2202C438.68652,339.67554,440.0642,338.3645,440.68835,337.3601C441.31116,336.29688,442.40125,335.22534,443.09888,335.0371C444.3186,334.66406,446.9563,331.98633,449.29224,328.78882C449.91846,327.90088,451.64,326.23315,453.02112,325.0979C457.33716,321.5713,459.4048,319.66382,465.77014,313.23682C469.15405,309.84448,473.0559,306.03345,474.5515,304.77905C477.0216,302.51367,477.5276,301.45264,478.8319,296.17114C479.3186,294.05908,478.3822,287.6504,477.42725,286.55835C477.12866,286.21338,476.57397,284.64624,476.19446,283.07593C475.81384,281.4475,474.83728,279.18726,473.99707,277.97607C473.2162,276.82202,472.36523,275.02686,472.11426,274.09692C471.91858,272.99048,471.0816,271.95456,470.07794,271.3889C469.13275,270.82224,468.24066,269.96262,468.05573,269.44016C467.8708,268.9177,466.9743,267.82468,466.02484,267.02414C464.898,266.11032,464.0512,264.54855,463.5484,262.63034C463.04816,260.72168,462.5061,259.68103,461.9255,259.68103C461.92252,259.68103,461.91956,259.68106,461.91656,259.68112C461.91263,259.68118,461.90872,259.68124,461.9048,259.68124C461.44043,259.68124,460.91245,259.16867,460.727,258.53488C460.53986,257.89572,459.53314,257.15475,458.41705,256.82492C457.3,256.43698,456.29315,255.69601,456.04547,254.94138C455.799,254.24484,454.06232,251.9404,452.1546,249.87253C450.06854,247.63278,448.44757,245.26779,448.25177,244.16135C447.99982,243.17307,447.3974,242.19113,446.8687,242.0256C444.04938,241.20139,442.6944,240.58395,442.68463,240.05832C442.66412,238.94894,436.0556,232.2363,434.64752,231.91208C433.7088,231.69553,433.0535,231.00677,432.80045,229.9599C432.19254,227.29042,432.00168,226.9624,430.71033,226.9624C430.65094,226.9624,430.58923,226.9631,430.52505,226.9643C430.50055,226.96475,430.47583,226.96497,430.4509,226.96497C428.75214,226.96497,426.06622,225.92572,426.0524,225.17767C426.04813,224.94403,424.1404,222.87642,421.82083,220.64107C418.43057,217.37398,417.5319,216.16377,417.20316,214.18379C416.81827,212.32149,416.3986,211.74507,415.40042,211.47139C414.63797,211.3105,413.74905,210.62569,413.32742,209.93257C412.90567,209.23946,411.28348,206.81612,409.60513,204.51045C407.98526,202.20357,406.1868,199.72505,405.7056,198.97432C405.2244,198.22383,404.1559,197.30904,403.33084,196.91548C402.38773,196.46529,401.72818,195.54292,401.46964,194.2043C401.2156,193.09883,400.67154,192.11592,400.31912,192.00557C399.31973,191.67354,392.41275,184.61617,391.74454,183.22652C391.38113,182.53218,390.31912,181.96773,388.91446,181.81856C387.21548,181.55782,386.68338,181.21724,386.66714,180.34126C386.6553,179.69893,385.51883,178.25948,384.15408,177.11641C382.73087,175.97432,379.87805,173.34003,377.73694,171.27655C375.5957,169.21307,373.1051,167.21454,372.22266,166.88055C371.33923,166.48773,370.62756,165.91693,370.6211,165.56635C370.61462,165.216,368.60645,164.02655,366.13208,162.90399C361.65503,160.88373,361.0592,160.25214,360.23523,156.76239C360.0415,155.77289,358.84338,154.1596,357.6549,153.07147C355.27795,150.89545,354.24414,148.69478,353.03516,143.34273C351.95715,138.748,352.4048,131.37886,353.77832,129.83467C354.34937,129.12325,354.73206,127.714066,354.70715,126.37105C354.6726,124.50215,354.30713,123.69136,352.88086,122.37398C351.27588,120.88472,351.09106,120.3625,351.02942,117.0339C350.95166,112.82931,349.07214,105.970665,347.3927,103.60665C345.71436,101.30099,345.58362,100.54415,346.42065,98.42574C347.36682,95.895966,347.2339,88.713104,346.1449,86.688934C345.66162,85.82175,343.93237,83.92575,342.26917,82.43771L339.2401,79.74826L339.16663,75.77731C339.0682,73.61764,338.7817,70.76047,338.4659,69.48117C337.32834,64.82883,336.21774,61.6362,335.504,60.948456C335.08762,60.547333,334.7816,59.79343,334.77084,59.209446C334.73837,57.457493,330.921,46.89646,329.7856,45.515358C329.18747,44.767067,328.03366,42.39329,327.11667,40.19041C326.25803,37.986553,325.1096,35.90477,324.63486,35.504623C324.16013,35.104477,323.37936,33.950424,322.89365,32.966537C322.40488,31.807114,321.5711,30.94627,320.6325,30.729961C319.8117,30.57005,318.98224,29.942854,318.73676,29.304426C318.55072,28.724104,317.00543,27.29222,315.29022,26.155502C313.57513,25.019028,311.02936,23.196764,309.549,22.114244C304.4184,18.312197,301.9346,16.719627,301.16385,16.719627C301.1605,16.719627,301.15717,16.719656,301.15387,16.719717C301.1516,16.719759,301.14932,16.71978,301.147,16.71978C300.66962,16.71978,298.90897,15.821201,297.14508,14.749503C295.38,13.676838,293.67606,12.7768,293.25815,12.7768C293.2564,12.7768,293.2547,12.776816,293.253,12.776848C293.2512,12.776882,293.24936,12.776899,293.24753,12.776899C292.89648,12.776899,292.30524,12.147946,292.0008,11.397943C291.45575,10.356684,290.69,10.020258,288.17352,9.7746525C286.7217,9.609833,285.38022,9.528412,284.10364,9.528412 Z"/> </g> </g> </svg>