<?xml version="1.0" encoding="UTF-8"?>
<svg enable-background="new 0 0 2710.5769 1218.698" version="1.1" viewBox="0 0 2710.5769 1218.698" xmlns="http://www.w3.org/2000/svg">
 <path d="m2563.7 692.42s25.721-26.141 53.559-56.506c27.403-32.051 17.288-39.214 10.118-57.775-7.1699-18.555-14.339-9.6961-24.88-10.542-10.547-0.8409-7.5918 4.218-4.6436 5.9032 2.9551 1.6885-1.6816 3.3787-2.1072 8.0109-0.4187 4.6435-1.26 5.9083 3.3738 13.078 4.6436 7.1696 3.7959 8.0156 1.6885 10.123-2.1174 2.106-10.122 13.916-12.229 20.238-2.1074 6.3257-9.2739 13.075-16.028 15.604-6.7444 2.5345-4.6367 0.846-6.7444-8.4343-2.1038-9.2773-2.5293-23.193-7.5918-41.749-5.0623-18.556-21.928-16.871-39.223-31.631 10.122-10.116-1.6851-23.61-1.6851-23.61s10.547-18.135 13.921-21.931c3.3704-3.7959 6.7476-3.7959 10.122-8.0109 3.3772-4.2146-4.2183-2.109 0.8411-15.606 5.0691-13.494 6.3286-16.447 5.0691-29.937-1.2666-13.5-17.724-23.201-26.994-27.416-9.2805-4.2146-15.602-1.6869-22.35 0-6.7544 1.6902-9.7024 3.7959-12.658 7.5904-2.9453 3.7959-18.973 10.967-14.336 18.558 4.6367 7.5901 2.9517 9.2756 2.9517 13.916 0 4.6418-3.7959 5.9049-5.0593 15.18-1.2695 9.2806 6.3257 14.762 6.3257 14.762l-2.5295 16.03s-1.6885 0.8375-7.1733 9.691c-14.62-1.6572-26.044 0.6595-34.384 6.2332-9.7686-9.1368-17.779-9.9449-17.779-9.9449s-6.2693-0.8379-9.6104-5.8488c-3.3406-5.0164 2.5066-6.2713 2.5066-15.88s-2.9187-21.306-4.1753-22.977c-1.2532-1.6737 2.9189-22.144-1.6687-60.998-4.5942-38.857-40.529-40.11-51.396-37.607-10.857 2.5082-14.623 3.3444-23.812 4.5959-9.1912 1.2597-21.724 21.315-22.558 40.113-0.8374 18.8-4.6006 49.715-5.0193 63.087-0.4155 13.37-3.7563 13.784-22.555 18.8-5.5305 1.4741-10.214 3.6209-14.382 6.5564-7.9709-11.355-13.644-19.204-13.644-19.204-6.9292-20.8-34.662-20.8-53.371-23.571-15.253-4.8546-17.328-18.714-17.328-18.714l-1.3718-2.081c13.858-4.1589 9.6992-27.723 17.324-37.429 10.392-0.6906 6.2329-18.025 6.2329-18.025s-1.3784-11.783-2.0808-33.961c-0.6895-22.182-22.865-31.885-34.655-33.961-11.78-2.0874-33.969 4.8448-42.277 11.779-8.3208 6.9292-9.7061 18.714-12.483 31.195-2.7673 12.475 8.3271 16.63 9.0229 18.71 0.5674 1.7298 0.1914 9.1649-0.7454 16.396-24.161-70.525-70.797-48.093-79.098-49.752-8.7465-1.7494-19.824-6.998-22.743-13.99-2.9121-6.9964 4.0894-31.484 4.0894-31.484s12.826-2.3316 16.322-13.413c3.5057-11.075-7.5853-6.9933-7.5853-6.9933l3.5057-4.0812v-19.24c0-8.7477-1.7544-31.479-18.08-48.971-16.325-17.488-56.554-6.4145-69.96 6.9933-13.413 13.413-11.068 18.078-10.494 23.907 0.5869 5.8289-1.7416 2.9121-5.244 16.905-3.499 13.993 11.078 11.081 11.078 11.081s0 6.99 0 24.482 10.488 12.247 10.488 12.247 1.751 4.0796 1.751 16.32c0 12.247 7.5824 7.5803 11.652 19.821 4.0928 12.249 0.5938 13.411-5.8241 28.572-3.4133 8.075-9.155 10.687-15.616 13.042-8.4496-63.194-55.838-49.45-55.838-49.45s2.8628-34.277 2.8628-47.844c0-13.574-11.431-45.715-24.29-77.136-12.852-31.425-61.418-10.001-72.133-0.7108-10.708 9.2823-35.707 54.272-46.409 73.56-10.448 18.789-13.426 51.793-13.574 53.481-1.9985-9.9483-4.0137-22.133-5.9197-37.813-7.4406-61.108-44.599-72.669-56.158-75.147-11.559-2.4734-11.563-12.387-24.778-23.12-13.205-10.735-33.857-5.7864-39.632-5.7864-5.791 0-2.4866-15.688-1.6588-25.601 0.8278-9.9071 3.3079-18.16 14.046-18.16 10.731 0 7.4236-4.9569 7.4236-14.043 0-9.0841 0-30.554-0.8243-36.337-0.828-5.783 3.3079-16.511-14.864-45.416-18.165-28.903-68.538-13.212-91.657 9.9118-23.122 23.119-8.2614 52.024-7.437 71.841 0.8276 19.816 1.6523 11.562 8.2614 20.647 6.6061 9.0825 17.344 25.597 17.344 25.597l0.821 11.559s-11.559 6.6073-22.294 9.9122c-10.735 3.3028-9.9105 9.9085-17.341 9.9085-7.4371 0-15.695 4.1292-24.774 17.344-20.626 7.0558-30.905 28.737-35.526 51.679-3.2484-1.2086-5.5371-1.8482-5.5371-1.8482s4.9766-3.3163 8.2976-11.063c-0.5573-7.1895-47.026-24.891-47.026-24.891l-1.6589-3.3194s14.386-10.508 20.467-22.677c6.0883-12.169 4.426-21.577 4.426-21.577s4.4258-1.6622 8.2913-17.702c4.9862-19.358-4.9735-17.697-4.9735-17.697s0-6.0846-1.108-28.765c-1.105-22.678-24.893-50.891-65.821-37.615-40.931 13.276-37.62 46.462-41.485 62.505-3.8752 16.044-1.1115 22.68-1.1115 30.424 0 7.7451-8.298 39.274-16.041 49.788-6.1838 8.3901-32.102 16.073-44.836 19.958-3.9313-3.6541-8.532-7.2142-13.937-10.575-36.485-16.147-85.536-25.714-85.536-25.714l-4.1819-21.532s11.962 2.3927 14.953-8.3685c2.9945-10.768 4.782-18.546 3.5883-21.534-1.1938-2.9928-4.7854-2.3944-3.5883-7.1811 1.1938-4.7823 2.3944-12.557 2.9945-18.538 0.5938-5.9843 1.7875-8.972 1.1874-12.56-0.5936-3.5899-4.7823-8.974-2.988-13.159 1.8007-4.1886-0.6001-13.756-6.5763-20.337-5.9825-6.5776-19.138-15.547-23.926-22.129-4.7854-6.5796-14.956-10.765-20.339-7.7735-5.3756 2.9864-9.5674 4.7837-19.142 4.1836-9.564-0.5971-19.731 7.1781-23.323 9.5708-3.5848 2.3927-20.929 2.9894-22.726 11.958-1.7943 8.977-6.5797 17.347-8.377 22.731-1.7875 5.3824-7.7765 26.316-4.782 28.114 2.9945 1.7943 7.7765 14.953 7.7765 14.953s-7.1794 7.7731-2.9945 13.156c4.1917 5.3838 5.986 5.9809 4.1917 11.365-1.7974 5.3841-4.1917 12.557-0.5967 13.156 3.5847 0.6004 13.152 4.1903 14.953 11.367 1.7909 7.1794 13.156 4.1883 15.547 4.1883 2.3944 0 3.5916 21.532 3.5916 21.532s-2.9911 5.3821-13.762 10.166c-10.758 4.7837-40.07 17.346-47.244 26.918-4.3366 5.7766-14.557 9.6102-21.45 23.059-0.9827-1.6784-1.9655-3.3538-2.9485-5.016-21.704-36.677-84.721-45.975-84.721-45.975l-1.0422-0.5241c-14.465 0-37.191-20.146-36.673-30.478 0.5177-10.333-1.5501-23.764-1.5501-23.764s2.0678-1.0321 7.7501-16.01c5.679-14.986-0.5211-24.804-0.5211-24.804s3.1002-8.7809-13.429-37.19c-16.533-28.414-44.427-44.427-76.457-24.275-32.02 20.139-30.473 48.04-20.665 91.429 9.8183 43.393 20.148 37.711 28.409 44.427 8.2712 6.713 5.1744 14.981 7.7566 23.244 2.5757 8.2712-19.115 20.667-32.544 24.803-11.945 3.6736-30.806 21.222-41.386 34.513-0.9564-0.3792-1.9128-0.62-2.8692-0.62-6.4706 0-12.948 3.702-23.125-3.7003-10.181-7.404 0-15.727-0.9271-20.348-0.9233-4.632 0.9271-23.13 6.4773-28.684 5.5507-5.5469 4.627-19.423 4.627-26.821 0-7.402 1.8537-9.2557 3.6939-19.435 1.85-10.172-4.624-8.3259-10.168-12.023-5.5536-3.6935 3.6905-6.479 4.624-14.803 0.9199-8.3273-2.777-11.103-13.878-16.655-11.101-5.5456-3.7067-1.852-3.7067-10.176 0-8.3226-7.3942-8.3226-13.872-8.3226-6.4739 0-15.726-8.3222-19.426-12.026-3.7003-3.7003-17.575 0-24.984 2.777-7.3939 2.775-11.096 11.099-24.974 20.352-13.878 9.2493-10.174 19.43-11.101 45.329-0.9267 25.906 11.101 41.628 15.726 61.985 4.6223 20.348 7.4009 24.979 10.179 36.075 2.7753 11.101-20.358 10.178-42.557 17.578-22.202 7.4006-43.484 59.207-47.181 76.79-3.7033 17.576 11.1 22.195 11.1 22.195s-0.6566 21.645-2.9452 46.577c0.4765-14.654-13.185-23.993-11.266-23.993 2.2523 0 11.233 2.2393 11.978-6.3649 0.747-8.6029-18.711-51.996-24.319-53.119-5.6067-1.1246-30.295-10.846-30.295-10.846s8.6008-8.98 5.9775-20.948c-2.6153-11.97-7.1007-19.452-7.1007-19.452s5.9761 5.2308 10.844 10.094c4.8627 4.8631 9.7288-1.489 9.7288-1.489s-1.5021-1.1228-4.1174-1.1228c-2.622 0-10.092-7.1089-10.092-7.1089s9.716-1.4957 20.939 4.8579c11.23 6.3619 0.7504 6.3619 0 8.2334-0.7454 1.8649 5.2389 8.23 6.3635-5.2389 1.1195-13.467-12.348-13.464-16.457-15.336-4.1241-1.8716 2.2394-5.2372 6.3554-1.4974 4.1157 3.7398 8.9771 1.4974 11.594 0.7487 2.6251-0.7487 8.2318-0.3741 12.727 2.9911 2.6122-8.2267-12.349-20.576-12.349-20.576s5.9825 3.3737 8.977-8.6011c2.9945-12.717-22.073-12.717-22.073-12.717s6.3632 2.9911 8.9787 3.3653c2.6234 0.3746 1.4971 3.7432-2.6156 8.2271-4.1224 4.4949-15.34-1.8699-19.448-16.833-4.1194-14.958-8.616-32.919-18.334-46.757-9.7271-13.843-29.558-26.186-54.998-18.703-25.431 7.4783-31.042 27.306-31.408 39.651-0.3826 12.343-5.2437 46.386-5.2437 54.24 0 7.8555-2.622 11.966-14.218 31.796s3.3721 20.578 3.3721 10.849c0-9.7241 19.079-8.6046 19.079-8.6046s2.9878 10.474 0.3691 15.339c-2.6153 4.8647-38.896 16.457-41.52 19.45-2.6169 2.9928-21.318 19.455-25.439 32.924-4.1143 13.459-16.465 36.66-16.465 36.66l14.974 3.3657s1.1161 14.211 1.1161 20.944c0 6.7346-2.2458 54.62-5.2386 67.335-2.9897 12.719-5.9826 57.612-7.8525 83.048-1.875 25.44-0.747 105.86-1.1229 121.58-0.3728 15.71 39.65 33.29 39.65 33.29v7.1102l10.479 3.3707s6.3537 81.169 5.6067 87.535c-0.7453 6.3618-1.4957 22.438-13.842 35.165-5.265 5.4203-10.046 14.605-13.952 25.599-3.7398-32.024-9.5789-71.889-17.522-96.767-15.001-47.006-24.002-75.51-25-81.51-0.9959-5.9991 4.9981-32.003 7.506-53.506 2.4933-21.506 1.4957-42.504-2.01-56.01-3.4926-13.5-6.4919-13.5-0.4978-26.504 6.0072-12.999 10.004-48.503 6.0055-75.509-4.0005-27.002-40.006-32.007-49.006-41.007-8.997-9.0034-9.4998-17.504-11.002-23.503-1.4971-6.0021 12.999-24.507 15.504-32.003 2.5031-7.5013 0.9976-37.008-2.007-44.008-2.9945-7.0014-15.998-22.5-31.999-24.004-16-1.4974-35.507 4.5-38.006 11.503-2.5014 7.0035-6.502 16.004-9.0034 28.006-2.4998 12.003-1.9969 47.003-1.9969 47.003 0.0034 2.4899-11.005 5.5124-16.503 7.0116-5.5078 1.5021-8.0041 3.5041-12.501 7.4996-4.5051 4.0019-4.0005 3.5024-18.508 22.508-14.496 19 2.5035 29.497 2.5035 29.497s-1.5008 6.9998-6.0059 30.006c-4.4966 23.004-4.9948 68.012-1.9918 85.511 2.9996 17.506 17.501 43.504 17.501 43.504s-5.0029 33.506-7.5013 42.013c-2.5014 8.4988-18 116.01-20.5 140.02-2.4981 24-24.009 126.51-24.009 126.51s31.507 6.9951 34.012 8.0011c2.4933 1.0026-1.5055 7.9909-2.0033 11.002-0.4981 2.9979-3.9988 6.9984-4.5034 13.994-0.4981 7.0082-1.9969 2.5162-9.5015 9.0132-7.5029 6.4938-10.999 19.497-15.505 26.506-4.497 6.9984-6.9984 19.494-14.997 42.992-8.0011 23.508 10.003 19.003 14.997 13.007 5.0029-6.0059 15.009-9.0068 20.508-19.518 5.4963-10.491 24.001-30.994 30.496-43.497 6.5087-12.506 37.516-46.508 37.516-46.508l50.5 4.5084s1.5008 17.997 1.5008 25.493c0 7.5029-0.9979 26.008-4.0022 32.511-2.9928 6.4939-4.497 10.999-4.497 17.496 0 6.5002-11.505 35.509-14.999 50.508-3.5007 15.009-10.502 30.008 18.498 22.502 29.005-7.4928 26.502-35.502 27.004-40.004 0.5029-4.5017 5.0012-5.9954 9.4998-9.9993 4.4983-3.9972-0.9946-5.9991-2.9979-13.502-1.9969-7.5029 4.0002-26.004 7.4962-51.504 3.5092-25.513 14.007-50.007 14.007-50.007s14.003-4.0073 26.003-12.503c5.0441-3.5717 11.581-5.1876 17.474-5.8768-1.5518 28.801 6.4077 59.495 6.045 72.021-0.3826 12.72-4.8661 28.059-5.2403 41.155-0.3745 13.093 2.2377 23.564 3.364 41.894 1.1178 18.326 38.154 34.038 55.74 29.553 17.58-4.4852 3.7385-20.952-5.9856-43.022-9.7241-22.074-13.846-41.884-13.846-62.091 0-20.203 10.855-45.64 18.333-68.459 7.478-22.815 13.84-49.389 24.314-70.332 10.476-20.944 16.455-29.177 16.455-40.4 0-11.226 15.347-40.404 15.347-40.404s-4.4936 36.286-3.7398 42.27c0.7369 5.9923-5.6249 25.81-7.8626 46.765-2.2424 20.945 6.7313 72.199 10.847 90.526 4.116 18.33 0.3745 41.904-2.2475 49.377-2.6169 7.4899-6.3618 31.423 0 39.652 6.3635 8.2351 7.8558 16.091 7.8558 16.091s16.084-0.3793 19.079-0.3793c3.0029 0 11.602 6.3585 17.958 18.337 6.3618 11.965 40.023 12.714 46.013 8.6075 5.9856-4.1157-2.6169-19.085-7.8508-25.82-5.244-6.7313-19.084-14.587-26.934-25.434-7.8606-10.85-14.969-34.79-14.6-40.776 0.3776-5.9856-0.3694-42.64 7.1136-84.54 7.4864-41.897 0.742-84.171 0.742-84.171s3.7563-19.445 4.5017-31.415c0.7453-11.973 4.8614-10.474 11.962-35.54 7.1169-25.061 17.966-59.477 17.966-59.477l5.9744-4.1174-0.7355-7.1055 3.7333 3.7381s7.4814 0.3776 8.606 0.3776c1.1215 0 18.701 1.1199 24.314-10.845 0.7406-1.5798 1.3407-3.2552 1.8372-4.9965 1.4758 0.3495 2.3447 0.5508 2.3447 0.5508s0.925 22.195 3.6987 33.299c2.7753 11.101 7.4039 23.126-0.92 68.456-8.329 45.331-11.108 130.45-11.108 130.45s7.404 51.801 7.404 79.56c0 27.752-8.3273 27.752-12.951 58.282-4.6253 30.529 38.853 47.174 54.58 41.627 15.727-5.5507 12.021-24.056 0-49.954-12.024-25.902 1.8503-99.912 3.702-150.8 1.8537-50.882 12.025-65.682 16.646-98.062 4.6321-32.378 5.5604-114.72 5.5604-114.72l14.796 2.7753 10.179 0.9318s-2.7767 65.68-2.7767 93.434c0 27.756 21.278 52.731 21.278 86.956 0 34.231 10.174 111.02 1.8503 152.65-8.3273 41.624-25.904 30.53-52.731 60.129-26.832 29.609 23.127 30.536 45.327 27.756 22.202-2.7771 42.56-20.355 46.257-26.829 3.7003-6.4736 24.052-27.749 28.679-37.93 4.6334-10.164-15.722-24.049-15.722-24.049s-7.4073-12.954-7.4073-20.362c0-7.3909 7.4073-75.853 9.2509-134.14 1.8469-58.283-12.951-89.736-12.025-112.87 0.6201-15.535 3.3278-42.328 5.0394-58.252 1.0323 19.623 2.2296 44.102 2.2296 52.779 0 13.947 7.2291 37.194 17.565 79.557 10.332 42.359 9.3002 55.793 8.2614 86.793-1.0324 30.991 15.5 20.144 21.186 21.694 5.6824 1.5468-4.1356 4.6402-8.7825 11.879-4.6469 7.2324 12.922 12.4 12.922 12.4s1.0256 13.95 6.7046 20.655c5.6891 6.7245 16.022 8.2776 20.157 5.1812 4.1191-3.1035 2.5757 2.5822 4.1258 7.2159 1.5433 4.6566 0.5143 8.2776 0.5143 15.504 0 7.2324-2.0645 5.6857-6.1936 12.928-4.1356 7.2194-5.6824 26.849-9.818 36.149-4.1292 9.2938-17.044 21.701-20.147 35.648-3.1002 13.94 30.994 19.623 49.074 16.012 18.086-3.6212 25.83-25.833 25.83-28.923 0-3.1066 11.886-3.621 15.504-10.85 3.6145-7.2355-2.0678-27.904-5.1714-37.198-3.0968-9.3036-2.0712-37.191-7.2256-44.941-5.1744-7.7471 1.032-30.998 4.1288-33.065 3.1002-2.0648 5.1616-9.8149 4.6503-17.565-0.5146-7.7501 4.65-6.7147 6.2001-23.759 1.5535-17.057-19.115-8.2679-19.115-8.2679s-0.5146-19.628-6.2004-41.844c-5.679-22.217-8.7825-42.875-9.8146-57.863-1.0324-14.98 7.2324-21.696 6.7147-26.344-0.5146-4.655 3.6146-23.247 6.7211-32.03 3.0969-8.7792 3.0969-40.293 3.0969-40.293l3.6179-0.5147s4.6436 10.847 14.465 32.544c9.8115 21.701 22.212 53.211 28.412 68.192 6.1936 14.976 13.429 52.176 21.694 73.355 8.2614 21.18 26.348 57.342 28.415 59.934 2.0645 2.5791 0 6.1869-6.197 12.39-6.2034 6.2004 3.1002 13.433 14.979 19.118 11.883 5.6755 7.2358 1.5433 9.3003 8.7725 2.0648 7.2391 8.7825 10.342 20.662 10.342 11.883 0 3.1002 17.037 1.0358 17.037-2.0712 0-13.436 6.7214-17.565 11.886-4.1326 5.168 1.5467 16.536-1.0388 22.209-2.579 5.692 1.5565 10.342 1.0388 16.018-0.5177 5.6824-14.989 11.886-22.73 25.826-7.7535 13.954 14.982 21.183 39.774 18.6 24.797-2.5889 31.508 2.5822 36.162-4.6469 4.6533-7.2389 23.247-17.044 29.447-25.826 6.2001-8.7795 7.7437-16.022 2.0645-25.312-5.6824-9.3101-13.95-38.233-17.565-48.572-3.6146-10.322-3.0935-6.1936 3.6149-20.144 6.7178-13.951 8.7821-17.565 8.7821-26.348s-7.2324-34.612-14.458-39.77c-7.2422-5.1714-8.7825-26.867-20.15-44.429-11.368-17.572-11.368-25.32-18.6-44.946-7.226-19.628-1.029-41.327 3.1002-67.155 4.1323-25.83-6.197-70.267-11.876-97.129-5.6857-26.86 4.1288-54.24 6.1967-66.119 2.0614-11.884 5.6793-26.862 5.6793-32.549 0-5.6806-2.0648-22.726 2.0709-78.52 4.1326-55.787 5.1646-67.674-3.0999-80.068-3.73-5.5915-4.6172-18.124-4.4724-30.196 0.1452 0.2391 0.2806 0.4769 0.4323 0.7159 13.159 20.934 26.915 39.476 34.685 49.044 7.7765 9.5691 18.548 19.138 18.548 19.138s-10.771 8.972-10.771 37.676c0 28.717-11.962 92.11 0.6035 138.77 12.562 46.654 23.32 95.103 28.709 127.4 5.3824 32.299 1.7909 47.844 1.7909 53.226 0 5.3824 4.1882 11.968-0.5938 34.7-4.7917 22.723-11.958 50.233-1.1971 80.137 10.771 29.906 16.15 71.77 19.738 90.315 3.5916 18.541-2.3973 38.28-1.2036 47.85 1.2036 9.5707-4.1852 20.932-11.958 28.109-7.7734 7.1797-16.744 18.551-10.171 20.939 6.5891 2.3944 10.771 2.9847 10.771 2.9847l13.756 4.1849s8.3732-2.9847 10.768 2.4011c2.3977 5.3855 10.168 0.5933 11.965-2.4011 1.7876-2.9847 13.749-1.7808 13.749-17.928 0-16.156 5.3888-35.295 1.1937-56.827-4.1819-21.532-4.1819-78.34-1.7909-86.12 2.391-7.7765 2.391-50.842 1.2006-75.375-1.2006-24.516 6.5763-53.226 6.5763-102.87 0-49.646-4.1853-104.07-4.1853-116.03 0-11.958 5.9792-19.14 5.9792-19.14s6.5826 34.69 12.562 57.421c5.9761 22.728 13.152 81.936 11.362 113.04-1.7909 31.102-1.1938 53.83 0 82.542 1.1971 28.712 1.1971 34.695-5.3855 43.662-6.5763 8.974-0.5873 13.759 0 28.102 0.6001 14.356-5.379 47.257-4.7887 60.412 0.6034 13.165 2.4008 23.33 4.7887 34.701 2.391 11.352 11.372 12.545 11.968 10.158 0.5972-2.3877 6.5729-4.1884 8.9707-3.5814 2.391 0.5933 7.173-5.3792 7.173-5.3792s5.3855-5.9889 8.9736-11.965c3.5883-5.9825 5.3855-7.7731 5.3855-20.338 0-12.562-5.3855-55.627-6.5861-68.782-1.1904-13.162 0-19.138 0-26.905 0-2.8199 1.6559-8.9473 3.928-15.966 2.9681 24.194 9.1321 48.556 8.6738 61.583-0.5607 15.477-3.321 8.2911-4.9867 17.69-1.6555 9.4025 3.8752 26.007 7.7438 30.984 3.8752 4.9733 8.8484 2.2097 10.511 6.6321 1.6655 4.426-6.0815 12.724-6.6354 18.805-0.5576 6.0913 0 16.605 19.362 26.555 19.356 9.9597 20.464 14.933 32.64 25.444 12.163 10.511 42.59 18.257 64.709 12.169 22.13-6.0815 16.596-16.045 9.4094-22.68-7.193-6.6489-17.153-9.4127-17.153-16.048 0-6.6323-0.5541-3.8651-8.2944-4.4226-7.7438-0.5441-32.079-23.778-32.079-23.778l0.5441-1.1147c-1.1016-4.98 13.835 2.2096 25.454 9.9534 11.609 7.7471 16.035 2.213 37.613 9.9564 21.572 7.7535 33.738 6.0848 47.016-1.1047 13.274-7.1831 8.2976-20.467-16.041-29.866-24.339-9.4156-46.468-16.048-46.468-16.048l-12.72-14.376s10.511-11.619 11.065-23.241c0.5573-11.612-9.9564-21.014-14.94-22.684-4.9769-1.649 2.2194-45.901 10.511-71.902 8.2942-25.995 11.068-38.167 7.7501-49.226-3.321-11.061 1.6622-13.281 4.4226-16.041 2.767-2.7618 2.767-2.7652 1.6589-7.7451-1.105-4.9734 0-13.832 4.4222-18.256 4.4261-4.4159 8.298-8.301 3.8787-17.7-4.4291-9.4042 4.4193-10.511 4.4193-14.936 0-4.4243 5.5337-16.038 10.511-23.782 4.9799-7.7438 10.514-20.466 24.342-51.447 13.835-30.978 23.231-70.806 23.785-77.992 0.5538-7.1976 3.8715-8.2993 7.1896-13.278 3.1792-4.7688 3.3274-11.038 4.7917-14.964 0.541 2.1371 1.7943 8.6076-0.2242 17.347-2.4768 10.728 6.606 29.723 11.569 37.979 4.9502 8.2628 23.112-8.2567 23.112-14.862 0-6.606 5.7848-5.7783 5.7848-5.7783l-7.4402 48.716 43.777 7.4354s8.2513 56.979 9.0858 76.8c0.8213 19.814-0.8345 89.182 0 135.43 0.8213 46.247 23.122 95.793 33.026 124.69 9.9104 28.903-5.7847 54.506-14.867 68.539-9.0793 14.046-14.033 14.046-5.7715 28.91 8.2548 14.867 56.148 0 56.148 0s4.1255 1.6525 4.9536 6.606c0.8243 4.9601 33.029 3.2979 51.194-0.8213 18.172-4.1322 9.9172-18.99 9.9172-33.039 0-14.026-4.9471-28.076-6.6094-37.155-1.6521-9.0925 1.6622-28.082 1.6622-28.082s33.857-79.276 39.628-124.69c5.4382-42.786 1.3654-125.12 1.5599-149.02 6.7772 4.1025 12.846 4.6138 27.05 10.929 19.286 8.5647 20.005 0.7139 20.005 0.7139s0 14.282 2.8496 18.57c2.8624 4.2822-2.8561 45.71-5.7155 58.562-2.8561 12.857-17.855 25.714-21.42 33.568-3.5784 7.8541-10.722 73.561-11.434 101.41-0.7092 27.865-7.856 56.428-7.856 74.29 0 17.849-4.2872 14.277-5.7119 19.986-1.4282 5.7189 8.568 23.571 25.717 45.713 17.133 22.139 52.121 10.003 56.412-4.9963 4.2872-15.012-22.855-39.998-24.989-52.151-2.1404-12.13-1.438-4.274 0-12.13 1.4215-7.8625-0.7156-7.1436-5.7155-12.143-5.0028-4.9961 25.714-102.84 28.567-117.84 2.8525-14.997 12.852-39.993 19.276-49.28 6.4277-9.287 21.43-64.281 21.43-64.281s6.4277-1.4278 6.4277-10.708c0-9.2888 6.428-52.852 6.428-52.852l3.5747-9.287 17.143 0.7139s0 10.712-0.719 38.563c-0.7123 27.853 2.856 44.992 8.5681 64.998 5.7153 19.996 5.0032 26.42 2.1471 39.279-2.8628 12.854 1.4346 59.996 1.4346 89.992 0 29.995-1.4346 69.274-1.4346 80.701 0 11.417 2.8561 33.557 4.993 59.99 2.1503 26.427 36.433 23.564 49.997 12.849 13.561-10.715-2.1438-49.987-10.003-59.281-7.8495-9.2837-7.1437-27.126-4.9932-45.703 2.1401-18.561 23.567-110.69 25.002-121.41 1.4215-10.71-1.4346-19.286-5.7252-42.852-4.2808-23.567-4.2808-47.85-2.8496-54.993 1.4215-7.1385 11.418-8.565 7.8525-17.141-3.5717-8.5681 7.1403-18.561 8.5779-30.711 1.4214-12.141-6.4341-4.9995-2.8591-13.569 3.5682-8.5651 20.704-6.4229 32.132-9.9963 11.421-3.5716 6.4247-4.2889 7.1403-8.5748 0.722-4.2805-9.9895-27.846-9.9895-27.846l5.8241-14.902c3.6146 3.0128 8.3206 4.8678 9.8839 9.541 2.9089 8.7464-6.421 20.985-6.421 20.985l19.24 9.9135s0.5771 8.1625 2.9155 27.985c2.3285 19.822 6.995 71.127 4.6635 105.52-2.3285 34.398 11.071 64.71 9.3232 78.709-1.7544 13.99-0.5836 63.545-2.9087 78.706-2.335 15.154-15.167 34.391-22.743 49.556-7.5786 15.158-21.572 38.474-27.403 62.374-5.8275 23.917 35.558 12.246 44.311 5.8374 8.743-6.4146 15.158-21.575 13.413-29.154-1.7545-7.582 12.822-33.227 12.822-33.227 1.1577-5.2501 8.7528-0.5802 9.9136 5.8275 1.1776 6.4178 0 8.1659-4.0729 26.236-4.0927 18.08 22.733 23.904 41.393 25.655 18.65 1.7476 8.7332-41.974 3.4893-55.386-5.2437-13.4 0-26.816-4.0729-33.824-4.0795-6.9883-8.1692-15.147-15.744-35.555-7.579-20.401-0.584-19.24 0-33.227 0.5771-13.993 2.9087-22.152 10.494-44.892 7.5756-22.733 9.9105-52.476 8.1558-68.799-1.748-16.327 4.6669-34.976 6.4114-42.562 1.7578-7.5789 23.904-57.716 29.154-66.461 1.6091-2.6797 3.4365-5.577 5.2666-8.1082 0 0.5427 0.0068 1.0901 0.0068 1.6309v61.694l11.091 2.0746s2.7737 20.103 5.5503 29.113c2.7671 9.0115 2.0713 35.352 2.0713 50.601 0 15.251-6.9324 25.646-3.4563 63.078 3.4563 37.432 18.023 76.942 18.716 88.722 0.6892 11.787 6.9287 22.182 6.9287 37.435s-1.3848 31.878 4.1624 55.446c5.5439 23.571 42.979 6.9355 43.668 0.699 0 8.3112 37.428 13.166 38.817-1.3849 0.4087-4.3369 1.0652-9.3169 1.7117-14.514 0.0166 0.9827 0.0461 1.9922 0.0955 3.0475 0.8345 17.971 11.695 12.539 26.321 21.308 14.62 8.7791 20.048-2.9253 19.633-13.779-0.4153-10.864-4.5938-25.906-5.8472-36.35-1.2532-10.454 2.5066-2.5098 4.5974-9.6102 2.0911-7.1007 1.2498-25.487 1.2498-25.487s12.948-2.932 8.7793-7.9415c-4.1787-5.0228 0.4155-8.3601 1.6689-22.149 1.2532-13.779 14.208-40.941 17.967-56.395 3.7563-15.461 20.879-38.865 26.318-68.105 5.4382-29.25 9.6035-34.257 14.201-63.919 4.5942-29.658 10.864-55.15 12.549-53.899 1.6621 1.2499 7.928 64.344 7.0969 78.129-0.8442 13.789-1.6785 46.8 0.4058 66.856 2.0974 20.045 2.0974 60.57 2.0974 72.272 0 11.694 2.9221 34.674 2.0876 54.311-0.8311 19.636 0 15.883 0 20.889 0 5.0164 0.8345 7.9382 5.0132 18.808 4.1819 10.864-0.4089 25.483-0.4089 25.483s11.691 2.0874 20.883 10.441c9.198 8.3601 18.386 13.38 39.694 10.032 2.9316-0.4619 4.9041-1.2863 6.1509-2.3713 8.5515-0.4387 20.015-6.6323 23.274-12.334 5.0686-8.8552-1.6787-26.991-1.6787-26.991h8.4263s-3.3704-14.343-2.9482-34.164c0.4187-19.821-18.558-21.918-18.558-21.918s2.9514-24.883 7.1763-35.423c4.2146-10.55 4.6301-22.357 6.322-28.254 1.6885-5.9099-1.6919-31.212-1.6919-31.212s10.969-5.4844 10.969-13.063c0-7.5934 5.0559-36.271 6.7444-51.028 1.6885-14.77 2.1106-24.887 7.1697-37.541 5.0591-12.646 8.0107-11.381 8.0107-11.381s-0.4221-8.8582 0.8442-17.712c1.2666-8.8551 8.4331-35.004 10.537-37.114 2.1106-2.106 1.2664 1.2695 3.3804 6.7491 2.104 5.4828 5.9033 53.135 7.5884 94.036 7.1733 38.383-0.4221 51.453-0.4221 51.453l11.388 3.7928s1.2632 18.558 1.2632 36.268c0 17.72 2.1077 32.05 6.3223 47.656 4.218 15.602 2.114 28.676-2.104 38.797-4.2183 10.121-3.374 10.537-6.332 14.34-2.9519 3.7926-1.2566 8.436-2.5264 20.668-1.2666 12.222-11.381 24.873-10.966 39.635 0.4224 14.762 10.54 12.232 27.835 3.7925 17.298-8.4296 12.651-19.395 13.918-34.153 1.2634-14.762 2.533-21.935 1.6885-31.212-0.8442-9.2675 1.6921-18.551 2.1108-37.524 2.9485-18.98 11.81-71.698 11.81-71.698l5.0459-2.101-1.6819-29.942 9.6995-0.8511s-2.1042-47.65-0.4255-69.58c1.6885-21.931 3.3735-47.652 3.8025-59.459 0.4187-11.814-2.114-36.692-6.7542-44.707-4.6338-8.0109-5.9036-30.78 1.2729-41.319 7.1665-10.547-7.5918-17.718-8.8582-23.196-1.2634-5.4827-4.2151-12.23 2.5293-15.179 6.7476-2.955 3.3738-7.5972 3.3738-10.549-3e-4 -2.9509 2.9548-2.5338 2.9548-2.5338zm-2194.3-103.52c-2.2411 28.057-4.8563 48.258-9.719 56.484-4.8614 8.23-5.2423 12.349-4.4872 20.578 0.7423 8.2271-2.9962 27.307-2.9962 27.307s0.7453 33.295 0 29.18c-0.747-4.1157-9.7339-19.084-9.7339-19.084l0.386-8.9788-3.0013-1.8665s-2.9881-5.2356-2.9881-17.956c0-12.72 9.7292-67.335 15.71-92.768 5.9907-25.439 10.471-60.602 10.471-60.602s3.367 6.3568 4.4966 8.6008c1.1184 2.246 4.1112 31.047 1.862 59.105zm154.88-85.663c0.3746-11.973 4.111-7.8542 11.22-26.934 0.6761-1.8172 1.052-3.5551 1.2945-5.2521-1.5484 16.234-3.7895 33.575-6.99 47.092-1.2549 5.3014-2.165 10.332-2.856 15.23-1.8619-11.713-2.8973-22.815-2.6683-30.135zm440.22 125.74c-5.7877 3.6209-11.582 1.4427-12.305-22.453-0.7288-23.898-6.5266-93.425-6.5266-129.63 0-36.217 2.9019-57.218 2.9019-57.218s6.5168 14.485 6.5168 52.87 0 72.427 2.8989 87.634c2.896 15.21 12.311 65.179 6.5136 68.802zm65.234-213.58c-3.5881-1.1938-5.3855-5.9809-2.3973-11.96 2.9945-5.9809 8.9803-37.683 12.565-33.494 0 0 4.1849 30.501 6.5828 44.26 2.391 13.754 2.988 24.519 2.988 24.519s-16.147-22.131-19.739-23.325zm203.01 14.61c-4.9995 43.85-14.992 57.172-14.992 57.172s4.65-57.714 9.8346-89.548c2.1833-7.8474 4.3071-13.454 6.0187-14.808 1.217 5.966 2.3183 19.244-0.8609 47.184zm207.38 249.65c-9.9105 3.3079-7.4337-8.2547 0-28.071 0 0 9.9037 24.771 0 28.071zm20.642-61.108s-1.649-14.033 0-28.071c1.6521-14.043 8.2546-18.998 9.9105-4.9553 1.6487 14.033-3.305 35.509-9.9105 33.026zm139.56 288.21c-1.649 38.807-8.255 91.664-8.255 110.65 0 18.996-4.9502 45.426-4.9502 45.426s-6.6158 56.969-12.397 47.062c-5.7745-9.9037-8.2581-52.85-8.2581-85.048 0-32.214 1.6588-94.978 0-106.53-1.649-11.566-9.076-29.736-2.47-63.59 6.6022-33.862 3.2977-85.884 3.2977-94.144 0-8.2533 4.9569-29.721 4.9569-29.721h21.466s2.4869 76.8 2.4869 93.314c2e-4 16.515 5.7717 43.766 4.1226 82.578zm101.2-491.49c-2.2262 20.916-4.9502 44.898-9.0497 64.399-1.5764-40.793-7.0906-105.55-7.0906-105.55s7.7735 19.86 16.14 41.147zm0.7322 202.35c-2.2725 3.735-4.9238 8.2368-7.7008 13.232-0.0298-0.795-0.056-1.5879-0.0858-2.3829-1.3488-34.881-1.0485-78.487-1.339-114.43 8.6836 18.406 29.847 26.443 29.847 26.443s-10.725 60.704-20.721 77.136zm252.24-67.059c2.3715 5.5256 0 11.845-1.5798 15.792-1.573 3.9411-4.7357 20.52-4.7357 20.52h-7.1007s8.6869-15.792-0.7882-25.256c-0.0396-0.0396-0.0692-0.0757-0.1088-0.1138 0.3661-14.003 0.7058-33.211 0.8442-60.302l4.0006 2.0016s7.1003 41.836 9.4684 47.357zm171.19-130.54s2.78 14.554 5.5471 19.408c2.7737 4.8546 2.0776 9.6994 2.0776 15.943 0 1.3866-1.0325 2.8081-2.645 4.2197-3.1035-10.717-6.9126-24.308-11.638-42 3.1035 1.8223 6.6587 2.4292 6.6587 2.4292zm-125.1 670.62s-9.3267 1.1675-6.4146-13.41c2.9087-14.57 5.8275-29.151 5.8275-29.151s7.0015 37.32 0.5871 42.56zm189.43-27.798c-1.1738 5.8802-5.887 14.122-5.887 26.47 0 12.341-5.8733 7.6414-6.4636 20.586-0.5872 12.928-7.0579 37.63-7.0579 40.575 0 2.9387-3.522 12.348-4.1123 1.1708-0.5903-11.174-7.0579-28.818-7.0579-32.927 0-4.1127 0-5.8802-4.7061-19.412-4.6995-13.522-15.876-29.992-12.348-52.919 3.5259-22.934 1.7681-43.516 1.1709-87.032-0.5806-43.522 7.0676-56.451 7.0676-69.974 0-13.531 1.7578-55.284 1.7578-55.284l22.934-0.587s-2.9419 46.454 4.1157 63.512c7.0579 17.054 4.6995 27.043 4.6995 36.459 0 9.4076-1.1704 54.097-0.5767 68.215 0.5768 14.119 7.6444 55.274 6.4638 61.148zm22.133-441.24c0.7024-7.7798 8.489-14.859 8.489-30.419 0-15.562 0-46.691 9.907-47.397 0 0 2.3252 2.2279 5.9758 5.8012-0.2671 0.6086-0.5273 1.1874-0.7944 1.8122-11.276 26.32-15.458 47.626-15.458 47.626l14.626 4.5973s1.6721 31.756 1.6721 45.959c0 6.1177-1.009 14.491-2.157 24.303-11.187-3.9708-22.901-45.186-22.261-52.283zm41.548 310.83c-3.3408 21.727-20.889 82.31-26.74 96.93-5.8474 14.623-5.0129 36.769-4.175 39.688 0.8376 2.9219-1.6724 4.5939-1.6724 4.5939s-2.9282 6.6783-3.344 9.1949c-0.4221 2.5095-1.6755 17.542-1.2566 25.061 0.4221 7.5322 3.7598 11.708 1.6724 13.792-1.0588 1.0587-2.6484 3.4103-3.8523 7.7935 0.4751-7.1039 0.4883-13.987-0.6167-19.771-2.7637-14.56-0.6826-36.044-0.6826-36.044s4.1521-50.601 14.551-72.783c10.405-22.186 0.6921-76.945-1.3855-84.568-2.071-7.6235 4.1523-81.102 4.1523-81.102l2.645-1.3225c0.9861 1.7166 2.0413 3.3657 3.1563 4.9489 7.9382 11.276 15.039 5.8488 15.039 5.8488s5.8471 66.009 2.5097 87.739zm-2.0876-156.68c-0.4158-27.155 6.2629-60.587 6.2629-60.587s5.8601 64.76-6.2629 60.587zm158.84-156.75c1.2332 12.72 1.9456 26.361 2.3347 39.492-4.7822-13.825-8.2185-23.793-2.3347-39.492zm-6.4741 295.99c-0.9465 11.442-1.8435 21.048-2.1865 23.275-0.3301 2.157-0.6729 3.3228-1.2104 4.1373 0.0527-0.4978 0.1086-1.029 0.1814-1.6257 0.4879-4.0451 1.6654-13.99 3.2155-25.787zm0.1254 222.57c-6.2629-6.6914-10.864-15.039-10.023-16.711 0.8345-1.6754-0.8408-22.987-1.6721-35.519-0.8379-12.529 4.594-37.185 7.9382-52.22 1.0881-4.9009 1.5928-12.391 1.7908-20.817 0.0461 1.2269 0.0725 2.2988 0.0725 3.1495 0 10.537 7.1731 76.744 7.1731 82.647 0 5.9066 1.26 26.15 6.3188 38.801 2.3679 5.9261 1.4053 9.0726 0.0166 12.004-4.495-4.6996-9.4057-8.9801-11.615-11.335z"/>
</svg>
